<svg xmlns="http://www.w3.org/2000/svg" viewBox="0 0 102.85 22.9"><path fill="#0d1b2a" d="M28.13 22.25a7.9 7.9 0 0 1-4.52-5.91 8.75 8.75 0 0 1 .09-3.86 2.41 2.41 0 0 1 .4-1.05 8.25 8.25 0 0 1 2.06-3.06 6.9 6.9 0 0 1 3.79-1.87 1.74 1.74 0 0 1 .42-.07 3.95 3.95 0 0 0 .4 0 5.59 5.59 0 0 0-1.7 2.67 10.81 10.81 0 0 0-.64 4.71 9.19 9.19 0 0 0 1.75 4.9 4.58 4.58 0 0 0 3.22 1.99 4.08 4.08 0 0 0 3.12-1.12.85.85 0 0 1 .38-.25 7.76 7.76 0 0 1-2.2 2.3c-.07.18-.24.24-.38.32a6.83 6.83 0 0 1-3.38.95 6.69 6.69 0 0 1-2.81-.65Zm12.97-2.42a8.38 8.38 0 0 1-1.7-5.47 8.33 8.33 0 0 1 1.9-5.26 6.97 6.97 0 0 1 4.49-2.6 6.8 6.8 0 0 1 .78-.07 7.93 7.93 0 0 0-2.22 4.97 10.08 10.08 0 0 0 1.24 6.7 5.16 5.16 0 0 0 2.77 2.4 4.03 4.03 0 0 0 4.22-1.12.87.87 0 0 0 .13-.17l.07.06a7.52 7.52 0 0 1-3.02 2.8 6.24 6.24 0 0 1-2.82.71h-.1a6.96 6.96 0 0 1-5.74-2.95Zm24.25 2.86a5 5 0 0 1-.76-.12 2.1 2.1 0 0 0 1.08-1.99c-.01-3.62-.02-7.26 0-10.88a2.14 2.14 0 0 0-1.22-2.17l2.17-.3a.58.58 0 0 0 .31-.1 7.87 7.87 0 0 1 1.6-.3 3.67 3.67 0 0 1 1.2-.1c.66-.02.8.1.8.76v13.26a1.8 1.8 0 0 0 1.05 1.75.75.75 0 0 1-.63.18h-3.08q-1.27.02-2.52 0Zm-9.4 0-.19-.01c-.1-.01-.21-.03-.25-.12s.06-.17.13-.23a2.26 2.26 0 0 0 .82-1.96q-.02-8.44 0-16.88a3.97 3.97 0 0 0-.6-2.37 1.62 1.62 0 0 0-.5-.34l2.08-.32c.96-.14 1.91-.28 2.87-.4 1-.12 1.08-.04 1.13.94a1.38 1.38 0 0 1 .1.7l-.01 18.77a2.15 2.15 0 0 0 .85 1.9.33.33 0 0 1 .1.1.23.23 0 0 1 .03.08.54.54 0 0 1-.46.14H59Zm26.25-.12a2.17 2.17 0 0 0 1.1-2.1c-.03-2.89.02-5.78-.03-8.68a3.2 3.2 0 0 1 1.01-2.46 2.8 2.8 0 0 0 .52-.63 1.14 1.14 0 0 0-.6-1.7 2.95 2.95 0 0 0-1.83-.3 9.06 9.06 0 0 0-1.07.14 4.81 4.81 0 0 1 1.44-.35 5.06 5.06 0 0 1 4.11.95 3.84 3.84 0 0 1 1.27 2.72c.03.27.03.54.03.82 0 3.19.02 6.38 0 9.57a2.13 2.13 0 0 0 1.1 2.03Zm-8.5 0a2.22 2.22 0 0 0 .8-.77 1.97 1.97 0 0 0 .28-1.01V9.37a1.77 1.77 0 0 0-1.08-1.73c-.02-.01-.03-.05-.08-.11l2.56-.38 2.66-.39c.56-.09.8.1.8.67 0 4.4.01 8.81 0 13.21a2.06 2.06 0 0 0 1.1 1.93Zm17 0a2.08 2.08 0 0 0 1.05-1.36 2.06 2.06 0 0 0 .04-.57c0-2.98.03-5.97-.01-8.96a3 3 0 0 1 .91-2.25 4.09 4.09 0 0 0 .63-.77 1.06 1.06 0 0 0-.23-1.38 2.85 2.85 0 0 0-2.16-.59 6.62 6.62 0 0 0-1.13.14 4.55 4.55 0 0 1 1.54-.37 5.52 5.52 0 0 1 3.35.5 3.52 3.52 0 0 1 1.9 2.97c.17 2.81.03 5.63.07 8.44q.02 1.16 0 2.32a2.01 2.01 0 0 0 1.08 1.87ZM37.44 12.8H32.8c.69-.39.58-1.02.52-1.6a11.38 11.38 0 0 0-.48-2.55 3.98 3.98 0 0 0-1.37-2.17 3.68 3.68 0 0 1 1.3.2 7.35 7.35 0 0 1 4.7 4.96c.1.28.13.58.23.85s0 .32-.19.32Zm11.14-.02c.83-.45.6-1.17.55-1.83a9.05 9.05 0 0 0-.86-3.33 2.9 2.9 0 0 0-1.04-1.19c2.71.22 5.55 2.26 6.38 6.35Zm41.2-5.96h.02-.02ZM65.62 3.27a1.51 1.51 0 0 1 .02-1.05 2.5 2.5 0 0 1 4.9-.37l.1.3a.57.57 0 0 1 .11.47 2.67 2.67 0 0 1-2.38 2.47 2.3 2.3 0 0 1-.28.02 2.62 2.62 0 0 1-2.47-1.84Z"></path><path fill="#e65f0e" d="M11.95 22.48a3.58 3.58 0 0 1-1.98-2.33 6.02 6.02 0 0 1-.21-1.75c0-3 .01-6-.01-9a1.88 1.88 0 0 0-1.07-1.75.12.12 0 0 1-.08-.13l2.5-.37c.9-.13 1.8-.25 2.7-.4.55-.08.81.12.81.68v10.33a2.9 2.9 0 0 1-.95 1.95 2.41 2.41 0 0 0-.71 1.08 1.08 1.08 0 0 0 .62 1.28 2.96 2.96 0 0 0 1.94.05 5.07 5.07 0 0 0 2.44-1.71 15.3 15.3 0 0 0 2.4-3.19.1.1 0 0 1 .04.16 8.27 8.27 0 0 1-4.7 5 6.15 6.15 0 0 1-2.15.45 3.7 3.7 0 0 1-1.59-.35Zm-8.64-.07a3.67 3.67 0 0 1-1.99-2.93 26.73 26.73 0 0 1-.11-4.03c-.02-1.97-.02-3.94 0-5.92A2 2 0 0 0 0 7.54c.6-.08 1.13-.17 1.65-.25 1.21-.18 2.43-.34 3.64-.53.57-.08.78.07.78.64 0 3.4-.03 6.78.02 10.18a2.83 2.83 0 0 1-.88 2.09 4.74 4.74 0 0 0-.6.74 1.14 1.14 0 0 0 .58 1.72 2.92 2.92 0 0 0 1.81 0l.73-.2a4.3 4.3 0 0 1-1.66.73 5.5 5.5 0 0 1-1.14.12 3.53 3.53 0 0 1-1.62-.37Zm97.87.19a1.57 1.57 0 0 1-1.6-1.58 1.64 1.64 0 0 1 1.62-1.66 1.68 1.68 0 0 1 1.65 1.63 1.62 1.62 0 0 1-1.52 1.61 1.32 1.32 0 0 1-.15 0Zm-93.44-.67Zm14.1-9.48h.01Zm-.17-.59a1.07 1.07 0 0 0-1.5-.63 2.53 2.53 0 0 1-2.86-.78 2.34 2.34 0 0 1-.43-2.36 2.4 2.4 0 0 1 1.82-1.67 2.6 2.6 0 0 1 3.14 2.45 21.49 21.49 0 0 1 .08 2.35 7.85 7.85 0 0 0-.08 1.23c-.18-.23-.11-.42-.17-.59Z"></path></svg>